<svg xmlns="http://www.w3.org/2000/svg" viewBox="0 0 512 512">
  <path d="M258.55 116.136h-17.101c-4.142 0-7.5 3.357-7.5 7.5s3.358 7.5 7.5 7.5h17.101c4.143 0 7.5-3.357 7.5-7.5s-3.357-7.5-7.5-7.5zM258.55 409.09h-17.101c-4.142 0-7.5 3.357-7.5 7.5s3.358 7.5 7.5 7.5h17.101c4.143 0 7.5-3.357 7.5-7.5s-3.357-7.5-7.5-7.5zM406.056 262.852h-17.101c-4.143 0-7.5 3.357-7.5 7.5s3.357 7.5 7.5 7.5h17.101c4.142 0 7.5-3.357 7.5-7.5s-3.358-7.5-7.5-7.5zM270.864 247.552a7.499 7.499 0 00-7.5 7.5v30.494a7.5 7.5 0 007.5 7.5 7.5 7.5 0 007.5-7.5v-30.494a7.498 7.498 0 00-7.5-7.5zM298.181 247.552a7.499 7.499 0 00-7.5 7.5v30.494c0 4.143 3.357 7.5 7.5 7.5s7.5-3.357 7.5-7.5v-30.494a7.498 7.498 0 00-7.5-7.5zM109.95 262.852h-17.1c-4.142 0-7.5 3.357-7.5 7.5s3.358 7.5 7.5 7.5h17.1c4.142 0 7.5-3.357 7.5-7.5s-3.358-7.5-7.5-7.5zM243.25 256.229l-30.387-17.883c-11.104-6.531-25.124 1.355-25.289 14.245l-.449 34.982c-.125 9.813 7.898 17.021 16.773 17.021 7.019 0 9.547-3.514 27.073-12.627v-.001l11.905-6.601c11.352-6.295 11.573-22.544.374-29.136zm-7.648 16.018c-31.343 16.842-30.822 18.132-32.61 17.069-1.807-1.083-.402-1.534-.417-36.531a1.772 1.772 0 012.68-1.509c30.696 18.62 31.289 17.396 31.263 19.439-.006.471-.17 1.118-.916 1.532z"/>
  <path d="M462.79 28.704h-14.704V15.236C448.086 6.835 441.251 0 432.85 0h-43.857c-8.483 0-15.386 6.901-15.386 15.386v13.318H359.39V15.236C359.39 6.835 352.554 0 344.154 0h-43.858c-8.483 0-15.386 6.901-15.386 15.386v13.318H49.209c-19.22 0-34.857 15.637-34.857 34.857v413.581c0 19.221 15.637 34.857 34.857 34.857h314.398c4.143 0 7.5-3.357 7.5-7.5a7.5 7.5 0 00-7.5-7.5H49.209c-10.949 0-19.856-8.908-19.856-19.856V63.562c0-10.949 8.908-19.856 19.856-19.856h405.067v27.589c0 4.143 3.357 7.5 7.5 7.5a7.5 7.5 0 007.5-7.5v-26.48a19.848 19.848 0 0113.015 15.067c.557 2.96.542 418.061 0 420.94-1.332 7.079-6.373 12.756-13.015 15.067V106.295a7.5 7.5 0 00-7.5-7.5 7.499 7.499 0 00-7.5 7.5v390.704H398.61a7.5 7.5 0 00-7.5 7.5c0 4.143 3.357 7.5 7.5 7.5h64.182c19.221 0 34.857-15.637 34.857-34.857V63.562c-.001-19.221-15.638-34.858-34.859-34.858zM344.389 15.236v13.468h-44.478c.166-13.137-.357-13.703.385-13.703 46.361.111 44.093-.232 44.093.235zm88.696 0v13.468h-44.478c.166-13.137-.356-13.703.385-13.703 46.361.111 44.093-.232 44.093.235z"/>
  <path d="M249.999 78.265c-45.893 0-90.349 16.517-125.181 46.507a7.5 7.5 0 009.788 11.368c32.11-27.648 73.09-42.874 115.393-42.874 97.646 0 177.086 79.44 177.086 177.086s-79.44 177.086-177.086 177.086c-148.381 0-230.112-172.056-138.674-287.08a7.5 7.5 0 10-11.743-9.335C.25 275.979 89.308 462.438 249.999 462.438c105.916 0 192.087-86.17 192.087-192.087S355.916 78.265 249.999 78.265z"/>
  <path d="M249.999 151.166c-65.719 0-119.186 53.466-119.186 119.185 0 65.72 53.466 119.186 119.186 119.186s119.186-53.466 119.186-119.186c0-65.719-53.466-119.185-119.186-119.185zm0 223.371c-57.448 0-104.185-46.737-104.185-104.185 0-57.446 46.738-104.184 104.185-104.184s104.185 46.737 104.185 104.184c0 57.447-46.736 104.185-104.185 104.185z"/>
</svg>